<mxfile host="www.draw.io" modified="2020-03-10T09:14:13.688Z" agent="Mozilla/5.0 (Macintosh; Intel Mac OS X 10_15_3) AppleWebKit/605.1.15 (KHTML, like Gecko) Version/13.0.5 Safari/605.1.15" etag="IFd8d37S4Eyyp6pHuKOp" version="12.8.1" type="github">
  <diagram id="bKKuNhbVg70CuKS0t8Wp" name="第 1 页">
    <mxGraphModel dx="2000" dy="1172" grid="1" gridSize="10" guides="1" tooltips="1" connect="1" arrows="1" fold="1" page="1" pageScale="1" pageWidth="2000" pageHeight="1200" math="0" shadow="0">
      <root>
        <mxCell id="0" />
        <mxCell id="1" parent="0" />
        <mxCell id="bSy5o8476wJf-g97gq2l-7" value="" style="edgeStyle=orthogonalEdgeStyle;rounded=0;orthogonalLoop=1;jettySize=auto;html=1;" edge="1" parent="1" source="bSy5o8476wJf-g97gq2l-1" target="bSy5o8476wJf-g97gq2l-6">
          <mxGeometry relative="1" as="geometry" />
        </mxCell>
        <mxCell id="bSy5o8476wJf-g97gq2l-1" value="登录" style="rounded=1;whiteSpace=wrap;html=1;absoluteArcSize=1;arcSize=14;strokeWidth=2;" vertex="1" parent="1">
          <mxGeometry x="220" y="380" width="100" height="100" as="geometry" />
        </mxCell>
        <mxCell id="bSy5o8476wJf-g97gq2l-9" style="edgeStyle=orthogonalEdgeStyle;rounded=0;orthogonalLoop=1;jettySize=auto;html=1;" edge="1" parent="1" source="bSy5o8476wJf-g97gq2l-6" target="bSy5o8476wJf-g97gq2l-8">
          <mxGeometry relative="1" as="geometry" />
        </mxCell>
        <mxCell id="bSy5o8476wJf-g97gq2l-6" value="身份认证" style="rounded=1;whiteSpace=wrap;html=1;absoluteArcSize=1;arcSize=14;strokeWidth=2;" vertex="1" parent="1">
          <mxGeometry x="400" y="380" width="100" height="100" as="geometry" />
        </mxCell>
        <mxCell id="bSy5o8476wJf-g97gq2l-5" style="edgeStyle=orthogonalEdgeStyle;rounded=0;orthogonalLoop=1;jettySize=auto;html=1;" edge="1" parent="1" source="bSy5o8476wJf-g97gq2l-2" target="bSy5o8476wJf-g97gq2l-1">
          <mxGeometry relative="1" as="geometry" />
        </mxCell>
        <mxCell id="bSy5o8476wJf-g97gq2l-2" value="username&lt;br&gt;password" style="shape=parallelogram;html=1;strokeWidth=2;perimeter=parallelogramPerimeter;whiteSpace=wrap;rounded=1;arcSize=12;size=0.23;" vertex="1" parent="1">
          <mxGeometry x="220" y="240" width="100" height="60" as="geometry" />
        </mxCell>
        <mxCell id="bSy5o8476wJf-g97gq2l-14" value="" style="edgeStyle=orthogonalEdgeStyle;rounded=0;orthogonalLoop=1;jettySize=auto;html=1;entryX=0;entryY=0.5;entryDx=0;entryDy=0;entryPerimeter=0;" edge="1" parent="1" source="bSy5o8476wJf-g97gq2l-8" target="bSy5o8476wJf-g97gq2l-17">
          <mxGeometry relative="1" as="geometry">
            <mxPoint x="760" y="430" as="targetPoint" />
          </mxGeometry>
        </mxCell>
        <mxCell id="bSy5o8476wJf-g97gq2l-169" value="" style="edgeStyle=orthogonalEdgeStyle;rounded=1;orthogonalLoop=1;jettySize=auto;html=1;fontSize=12;" edge="1" parent="1" source="bSy5o8476wJf-g97gq2l-8" target="bSy5o8476wJf-g97gq2l-168">
          <mxGeometry relative="1" as="geometry" />
        </mxCell>
        <mxCell id="bSy5o8476wJf-g97gq2l-8" value="是否通过" style="strokeWidth=2;html=1;shape=mxgraph.flowchart.decision;whiteSpace=wrap;" vertex="1" parent="1">
          <mxGeometry x="580" y="380" width="100" height="100" as="geometry" />
        </mxCell>
        <mxCell id="bSy5o8476wJf-g97gq2l-12" value="否" style="text;html=1;align=center;verticalAlign=middle;resizable=0;points=[];autosize=1;" vertex="1" parent="1">
          <mxGeometry x="640" y="499" width="30" height="20" as="geometry" />
        </mxCell>
        <mxCell id="bSy5o8476wJf-g97gq2l-16" value="是" style="text;html=1;align=center;verticalAlign=middle;resizable=0;points=[];autosize=1;" vertex="1" parent="1">
          <mxGeometry x="690" y="400" width="30" height="20" as="geometry" />
        </mxCell>
        <mxCell id="bSy5o8476wJf-g97gq2l-19" style="edgeStyle=orthogonalEdgeStyle;rounded=0;orthogonalLoop=1;jettySize=auto;html=1;entryX=0.5;entryY=0;entryDx=0;entryDy=0;" edge="1" parent="1" source="bSy5o8476wJf-g97gq2l-17" target="bSy5o8476wJf-g97gq2l-163">
          <mxGeometry relative="1" as="geometry">
            <mxPoint x="800" y="550" as="targetPoint" />
          </mxGeometry>
        </mxCell>
        <mxCell id="bSy5o8476wJf-g97gq2l-56" style="edgeStyle=orthogonalEdgeStyle;rounded=0;orthogonalLoop=1;jettySize=auto;html=1;entryX=0;entryY=0.5;entryDx=0;entryDy=0;entryPerimeter=0;" edge="1" parent="1" source="bSy5o8476wJf-g97gq2l-17" target="bSy5o8476wJf-g97gq2l-53">
          <mxGeometry relative="1" as="geometry" />
        </mxCell>
        <mxCell id="bSy5o8476wJf-g97gq2l-17" value="租户是否&lt;br&gt;已被禁用" style="strokeWidth=2;html=1;shape=mxgraph.flowchart.decision;whiteSpace=wrap;" vertex="1" parent="1">
          <mxGeometry x="750" y="380" width="100" height="100" as="geometry" />
        </mxCell>
        <mxCell id="bSy5o8476wJf-g97gq2l-28" value="" style="edgeStyle=orthogonalEdgeStyle;rounded=0;orthogonalLoop=1;jettySize=auto;html=1;" edge="1" parent="1" source="bSy5o8476wJf-g97gq2l-21" target="bSy5o8476wJf-g97gq2l-27">
          <mxGeometry relative="1" as="geometry" />
        </mxCell>
        <mxCell id="bSy5o8476wJf-g97gq2l-183" value="" style="edgeStyle=orthogonalEdgeStyle;rounded=1;orthogonalLoop=1;jettySize=auto;html=1;fontSize=12;" edge="1" parent="1" source="bSy5o8476wJf-g97gq2l-21" target="bSy5o8476wJf-g97gq2l-180">
          <mxGeometry relative="1" as="geometry" />
        </mxCell>
        <mxCell id="bSy5o8476wJf-g97gq2l-21" value="是否有角色" style="strokeWidth=2;html=1;shape=mxgraph.flowchart.decision;whiteSpace=wrap;" vertex="1" parent="1">
          <mxGeometry x="1280" y="380" width="100" height="100" as="geometry" />
        </mxCell>
        <mxCell id="bSy5o8476wJf-g97gq2l-33" value="" style="edgeStyle=orthogonalEdgeStyle;rounded=0;orthogonalLoop=1;jettySize=auto;html=1;" edge="1" parent="1" source="bSy5o8476wJf-g97gq2l-27" target="bSy5o8476wJf-g97gq2l-32">
          <mxGeometry relative="1" as="geometry" />
        </mxCell>
        <mxCell id="bSy5o8476wJf-g97gq2l-187" value="" style="edgeStyle=orthogonalEdgeStyle;rounded=1;orthogonalLoop=1;jettySize=auto;html=1;fontSize=12;" edge="1" parent="1" source="bSy5o8476wJf-g97gq2l-27" target="bSy5o8476wJf-g97gq2l-186">
          <mxGeometry relative="1" as="geometry" />
        </mxCell>
        <mxCell id="bSy5o8476wJf-g97gq2l-27" value="是否有可用&lt;br&gt;的角色" style="strokeWidth=2;html=1;shape=mxgraph.flowchart.decision;whiteSpace=wrap;" vertex="1" parent="1">
          <mxGeometry x="1460" y="380" width="100" height="100" as="geometry" />
        </mxCell>
        <mxCell id="bSy5o8476wJf-g97gq2l-37" style="edgeStyle=orthogonalEdgeStyle;rounded=0;orthogonalLoop=1;jettySize=auto;html=1;entryX=0.5;entryY=0;entryDx=0;entryDy=0;" edge="1" parent="1" source="bSy5o8476wJf-g97gq2l-32" target="bSy5o8476wJf-g97gq2l-36">
          <mxGeometry relative="1" as="geometry" />
        </mxCell>
        <mxCell id="bSy5o8476wJf-g97gq2l-40" style="edgeStyle=orthogonalEdgeStyle;rounded=0;orthogonalLoop=1;jettySize=auto;html=1;" edge="1" parent="1" source="bSy5o8476wJf-g97gq2l-32" target="bSy5o8476wJf-g97gq2l-39">
          <mxGeometry relative="1" as="geometry" />
        </mxCell>
        <mxCell id="bSy5o8476wJf-g97gq2l-32" value="上次登录角色&lt;br&gt;是否为空" style="strokeWidth=2;html=1;shape=mxgraph.flowchart.decision;whiteSpace=wrap;" vertex="1" parent="1">
          <mxGeometry x="1630" y="380" width="100" height="100" as="geometry" />
        </mxCell>
        <mxCell id="bSy5o8476wJf-g97gq2l-20" value="是" style="text;html=1;align=center;verticalAlign=middle;resizable=0;points=[];autosize=1;" vertex="1" parent="1">
          <mxGeometry x="810" y="499" width="30" height="20" as="geometry" />
        </mxCell>
        <mxCell id="bSy5o8476wJf-g97gq2l-23" value="否" style="text;html=1;align=center;verticalAlign=middle;resizable=0;points=[];autosize=1;" vertex="1" parent="1">
          <mxGeometry x="860" y="400" width="30" height="20" as="geometry" />
        </mxCell>
        <mxCell id="bSy5o8476wJf-g97gq2l-26" value="无" style="text;html=1;align=center;verticalAlign=middle;resizable=0;points=[];autosize=1;" vertex="1" parent="1">
          <mxGeometry x="1340" y="499" width="30" height="20" as="geometry" />
        </mxCell>
        <mxCell id="bSy5o8476wJf-g97gq2l-31" value="无" style="text;html=1;align=center;verticalAlign=middle;resizable=0;points=[];autosize=1;" vertex="1" parent="1">
          <mxGeometry x="1520" y="499" width="30" height="20" as="geometry" />
        </mxCell>
        <mxCell id="bSy5o8476wJf-g97gq2l-34" value="有" style="text;html=1;align=center;verticalAlign=middle;resizable=0;points=[];autosize=1;" vertex="1" parent="1">
          <mxGeometry x="1390" y="400" width="30" height="20" as="geometry" />
        </mxCell>
        <mxCell id="bSy5o8476wJf-g97gq2l-35" value="有" style="text;html=1;align=center;verticalAlign=middle;resizable=0;points=[];autosize=1;" vertex="1" parent="1">
          <mxGeometry x="1570" y="400" width="30" height="20" as="geometry" />
        </mxCell>
        <mxCell id="bSy5o8476wJf-g97gq2l-47" value="" style="edgeStyle=orthogonalEdgeStyle;rounded=0;orthogonalLoop=1;jettySize=auto;html=1;" edge="1" parent="1" source="bSy5o8476wJf-g97gq2l-36" target="bSy5o8476wJf-g97gq2l-46">
          <mxGeometry relative="1" as="geometry" />
        </mxCell>
        <mxCell id="bSy5o8476wJf-g97gq2l-36" value="使用第一个可用角色登录" style="rounded=1;whiteSpace=wrap;html=1;absoluteArcSize=1;arcSize=14;strokeWidth=2;" vertex="1" parent="1">
          <mxGeometry x="1630" y="550" width="100" height="100" as="geometry" />
        </mxCell>
        <mxCell id="bSy5o8476wJf-g97gq2l-51" value="" style="edgeStyle=orthogonalEdgeStyle;rounded=0;orthogonalLoop=1;jettySize=auto;html=1;" edge="1" parent="1" source="bSy5o8476wJf-g97gq2l-46" target="bSy5o8476wJf-g97gq2l-50">
          <mxGeometry relative="1" as="geometry" />
        </mxCell>
        <mxCell id="bSy5o8476wJf-g97gq2l-46" value="生成token" style="rounded=1;whiteSpace=wrap;html=1;absoluteArcSize=1;arcSize=14;strokeWidth=2;" vertex="1" parent="1">
          <mxGeometry x="1630" y="730" width="100" height="100" as="geometry" />
        </mxCell>
        <mxCell id="bSy5o8476wJf-g97gq2l-135" value="" style="edgeStyle=orthogonalEdgeStyle;rounded=0;orthogonalLoop=1;jettySize=auto;html=1;fontSize=12;" edge="1" parent="1" source="bSy5o8476wJf-g97gq2l-50" target="bSy5o8476wJf-g97gq2l-134">
          <mxGeometry relative="1" as="geometry" />
        </mxCell>
        <mxCell id="bSy5o8476wJf-g97gq2l-50" value="返回登录成功信息" style="rounded=1;whiteSpace=wrap;html=1;absoluteArcSize=1;arcSize=14;strokeWidth=2;" vertex="1" parent="1">
          <mxGeometry x="1630" y="900" width="100" height="100" as="geometry" />
        </mxCell>
        <mxCell id="bSy5o8476wJf-g97gq2l-38" value="无" style="text;html=1;align=center;verticalAlign=middle;resizable=0;points=[];autosize=1;" vertex="1" parent="1">
          <mxGeometry x="1690" y="499" width="30" height="20" as="geometry" />
        </mxCell>
        <mxCell id="bSy5o8476wJf-g97gq2l-43" style="edgeStyle=orthogonalEdgeStyle;rounded=0;orthogonalLoop=1;jettySize=auto;html=1;entryX=0.5;entryY=0;entryDx=0;entryDy=0;entryPerimeter=0;" edge="1" parent="1" source="bSy5o8476wJf-g97gq2l-39" target="bSy5o8476wJf-g97gq2l-42">
          <mxGeometry relative="1" as="geometry" />
        </mxCell>
        <mxCell id="bSy5o8476wJf-g97gq2l-39" value="使用上次登录角色登录" style="rounded=1;whiteSpace=wrap;html=1;absoluteArcSize=1;arcSize=14;strokeWidth=2;" vertex="1" parent="1">
          <mxGeometry x="1800" y="380" width="100" height="100" as="geometry" />
        </mxCell>
        <mxCell id="bSy5o8476wJf-g97gq2l-41" value="有" style="text;html=1;align=center;verticalAlign=middle;resizable=0;points=[];autosize=1;" vertex="1" parent="1">
          <mxGeometry x="1740" y="400" width="30" height="20" as="geometry" />
        </mxCell>
        <mxCell id="bSy5o8476wJf-g97gq2l-44" style="edgeStyle=orthogonalEdgeStyle;rounded=0;orthogonalLoop=1;jettySize=auto;html=1;" edge="1" parent="1" source="bSy5o8476wJf-g97gq2l-42" target="bSy5o8476wJf-g97gq2l-36">
          <mxGeometry relative="1" as="geometry" />
        </mxCell>
        <mxCell id="bSy5o8476wJf-g97gq2l-48" style="edgeStyle=orthogonalEdgeStyle;rounded=1;orthogonalLoop=1;jettySize=auto;html=1;entryX=1;entryY=0.5;entryDx=0;entryDy=0;" edge="1" parent="1" source="bSy5o8476wJf-g97gq2l-42" target="bSy5o8476wJf-g97gq2l-46">
          <mxGeometry relative="1" as="geometry">
            <Array as="points">
              <mxPoint x="1850" y="780" />
            </Array>
          </mxGeometry>
        </mxCell>
        <mxCell id="bSy5o8476wJf-g97gq2l-42" value="是否已被禁用" style="strokeWidth=2;html=1;shape=mxgraph.flowchart.decision;whiteSpace=wrap;" vertex="1" parent="1">
          <mxGeometry x="1800" y="550" width="100" height="100" as="geometry" />
        </mxCell>
        <mxCell id="bSy5o8476wJf-g97gq2l-45" value="是" style="text;html=1;align=center;verticalAlign=middle;resizable=0;points=[];autosize=1;" vertex="1" parent="1">
          <mxGeometry x="1760" y="571" width="30" height="20" as="geometry" />
        </mxCell>
        <mxCell id="bSy5o8476wJf-g97gq2l-49" value="否" style="text;html=1;align=center;verticalAlign=middle;resizable=0;points=[];autosize=1;" vertex="1" parent="1">
          <mxGeometry x="1860" y="660" width="30" height="20" as="geometry" />
        </mxCell>
        <mxCell id="bSy5o8476wJf-g97gq2l-62" style="edgeStyle=orthogonalEdgeStyle;rounded=0;orthogonalLoop=1;jettySize=auto;html=1;entryX=0;entryY=0.5;entryDx=0;entryDy=0;entryPerimeter=0;" edge="1" parent="1" source="bSy5o8476wJf-g97gq2l-53" target="bSy5o8476wJf-g97gq2l-59">
          <mxGeometry relative="1" as="geometry" />
        </mxCell>
        <mxCell id="bSy5o8476wJf-g97gq2l-181" value="" style="edgeStyle=orthogonalEdgeStyle;rounded=1;orthogonalLoop=1;jettySize=auto;html=1;fontSize=12;" edge="1" parent="1" source="bSy5o8476wJf-g97gq2l-53" target="bSy5o8476wJf-g97gq2l-172">
          <mxGeometry relative="1" as="geometry" />
        </mxCell>
        <mxCell id="bSy5o8476wJf-g97gq2l-53" value="组织是否&lt;br&gt;已被禁用" style="strokeWidth=2;html=1;shape=mxgraph.flowchart.decision;whiteSpace=wrap;" vertex="1" parent="1">
          <mxGeometry x="920" y="380" width="100" height="100" as="geometry" />
        </mxCell>
        <mxCell id="bSy5o8476wJf-g97gq2l-55" value="无" style="text;html=1;align=center;verticalAlign=middle;resizable=0;points=[];autosize=1;" vertex="1" parent="1">
          <mxGeometry x="980" y="499" width="30" height="20" as="geometry" />
        </mxCell>
        <mxCell id="bSy5o8476wJf-g97gq2l-63" style="edgeStyle=orthogonalEdgeStyle;rounded=0;orthogonalLoop=1;jettySize=auto;html=1;exitX=1;exitY=0.5;exitDx=0;exitDy=0;exitPerimeter=0;entryX=0;entryY=0.5;entryDx=0;entryDy=0;entryPerimeter=0;" edge="1" parent="1" source="bSy5o8476wJf-g97gq2l-59" target="bSy5o8476wJf-g97gq2l-21">
          <mxGeometry relative="1" as="geometry" />
        </mxCell>
        <mxCell id="bSy5o8476wJf-g97gq2l-182" value="" style="edgeStyle=orthogonalEdgeStyle;rounded=1;orthogonalLoop=1;jettySize=auto;html=1;fontSize=12;" edge="1" parent="1" source="bSy5o8476wJf-g97gq2l-59" target="bSy5o8476wJf-g97gq2l-177">
          <mxGeometry relative="1" as="geometry" />
        </mxCell>
        <mxCell id="bSy5o8476wJf-g97gq2l-59" value="用户是否&lt;br&gt;已被禁用" style="strokeWidth=2;html=1;shape=mxgraph.flowchart.decision;whiteSpace=wrap;" vertex="1" parent="1">
          <mxGeometry x="1100" y="380" width="100" height="100" as="geometry" />
        </mxCell>
        <mxCell id="bSy5o8476wJf-g97gq2l-61" value="是" style="text;html=1;align=center;verticalAlign=middle;resizable=0;points=[];autosize=1;" vertex="1" parent="1">
          <mxGeometry x="1160" y="499" width="30" height="20" as="geometry" />
        </mxCell>
        <mxCell id="bSy5o8476wJf-g97gq2l-64" value="否" style="text;html=1;align=center;verticalAlign=middle;resizable=0;points=[];autosize=1;" vertex="1" parent="1">
          <mxGeometry x="1030" y="400" width="30" height="20" as="geometry" />
        </mxCell>
        <mxCell id="bSy5o8476wJf-g97gq2l-65" value="否" style="text;html=1;align=center;verticalAlign=middle;resizable=0;points=[];autosize=1;" vertex="1" parent="1">
          <mxGeometry x="1210" y="400" width="30" height="20" as="geometry" />
        </mxCell>
        <mxCell id="bSy5o8476wJf-g97gq2l-66" value="&lt;h1&gt;用户登录认证&lt;/h1&gt;&lt;p&gt;&lt;br&gt;&lt;/p&gt;" style="text;html=1;strokeColor=none;fillColor=none;spacing=5;spacingTop=-20;whiteSpace=wrap;overflow=hidden;rounded=0;" vertex="1" parent="1">
          <mxGeometry x="40" y="40" width="190" height="120" as="geometry" />
        </mxCell>
        <mxCell id="bSy5o8476wJf-g97gq2l-67" value="token说明：" style="text;html=1;align=left;verticalAlign=middle;resizable=0;points=[];autosize=1;strokeWidth=1;fontSize=18;fontStyle=1" vertex="1" parent="1">
          <mxGeometry x="40" y="2410" width="120" height="30" as="geometry" />
        </mxCell>
        <mxCell id="bSy5o8476wJf-g97gq2l-69" value="token中包含的业务信息有：" style="text;html=1;align=left;verticalAlign=middle;resizable=0;points=[];autosize=1;fontSize=16;" vertex="1" parent="1">
          <mxGeometry x="40" y="2484" width="210" height="20" as="geometry" />
        </mxCell>
        <mxCell id="bSy5o8476wJf-g97gq2l-70" value="登录返回和前端请求的token键值均为：iFCloud-Token" style="text;html=1;align=left;verticalAlign=middle;resizable=0;points=[];autosize=1;fontSize=16;" vertex="1" parent="1">
          <mxGeometry x="40" y="2454" width="400" height="20" as="geometry" />
        </mxCell>
        <mxCell id="bSy5o8476wJf-g97gq2l-71" value="user_id&lt;br&gt;org_id&lt;br&gt;org_code&lt;br&gt;tenant_id&lt;br&gt;current_role_id&lt;br&gt;" style="text;html=1;align=left;verticalAlign=middle;resizable=0;points=[];autosize=1;fontSize=16;" vertex="1" parent="1">
          <mxGeometry x="60" y="2514" width="120" height="100" as="geometry" />
        </mxCell>
        <mxCell id="bSy5o8476wJf-g97gq2l-75" style="edgeStyle=orthogonalEdgeStyle;rounded=0;orthogonalLoop=1;jettySize=auto;html=1;fontSize=16;" edge="1" parent="1" source="bSy5o8476wJf-g97gq2l-73" target="bSy5o8476wJf-g97gq2l-46">
          <mxGeometry relative="1" as="geometry" />
        </mxCell>
        <mxCell id="bSy5o8476wJf-g97gq2l-73" value="expiration" style="shape=parallelogram;html=1;strokeWidth=2;perimeter=parallelogramPerimeter;whiteSpace=wrap;rounded=1;arcSize=12;size=0.23;" vertex="1" parent="1">
          <mxGeometry x="1460" y="750" width="100" height="60" as="geometry" />
        </mxCell>
        <mxCell id="bSy5o8476wJf-g97gq2l-76" style="edgeStyle=orthogonalEdgeStyle;rounded=0;orthogonalLoop=1;jettySize=auto;html=1;entryX=0;entryY=0.5;entryDx=0;entryDy=0;fontSize=16;" edge="1" parent="1" source="bSy5o8476wJf-g97gq2l-74" target="bSy5o8476wJf-g97gq2l-73">
          <mxGeometry relative="1" as="geometry" />
        </mxCell>
        <mxCell id="bSy5o8476wJf-g97gq2l-74" value="DB" style="shape=cylinder;whiteSpace=wrap;html=1;boundedLbl=1;backgroundOutline=1;strokeWidth=1;fontSize=16;align=center;" vertex="1" parent="1">
          <mxGeometry x="1300" y="740" width="60" height="80" as="geometry" />
        </mxCell>
        <mxCell id="bSy5o8476wJf-g97gq2l-78" value="登录成功返回信息：" style="text;html=1;align=left;verticalAlign=middle;resizable=0;points=[];autosize=1;strokeWidth=1;fontSize=18;fontStyle=1" vertex="1" parent="1">
          <mxGeometry x="40" y="2670" width="180" height="30" as="geometry" />
        </mxCell>
        <mxCell id="bSy5o8476wJf-g97gq2l-79" value="header" style="text;html=1;align=center;verticalAlign=middle;resizable=0;points=[];autosize=1;fontSize=18;" vertex="1" parent="1">
          <mxGeometry x="40" y="2710" width="70" height="30" as="geometry" />
        </mxCell>
        <mxCell id="bSy5o8476wJf-g97gq2l-81" value="&lt;div&gt;{&lt;/div&gt;&lt;div&gt;&amp;nbsp; &amp;nbsp; &quot;iFCloud-Token&quot;:&quot;eyJhbGciOiJIUzI1NiIsInppcCI6IkRFRiJ9.-SipWyeTSoq......pJSLQDHLjrd.s-iGRXkNXUi-JSOiShFXUp-k3S89D1INJ36MLDptRG0&quot;&lt;/div&gt;&lt;div&gt;}&lt;/div&gt;" style="text;html=1;align=left;verticalAlign=middle;resizable=0;points=[];autosize=1;fontSize=18;" vertex="1" parent="1">
          <mxGeometry x="60" y="2750" width="1220" height="70" as="geometry" />
        </mxCell>
        <mxCell id="bSy5o8476wJf-g97gq2l-82" value="body" style="text;html=1;align=center;verticalAlign=middle;resizable=0;points=[];autosize=1;fontSize=18;" vertex="1" parent="1">
          <mxGeometry x="40" y="2840" width="50" height="30" as="geometry" />
        </mxCell>
        <mxCell id="bSy5o8476wJf-g97gq2l-83" value="&lt;div&gt;{&lt;/div&gt;&lt;div&gt;&amp;nbsp; &amp;nbsp; &quot;user_name&quot;:&quot;用户名称&quot;,&lt;/div&gt;&lt;div&gt;&amp;nbsp; &amp;nbsp; &quot;current_role_name&quot;:&quot;普通用户&quot;,&lt;/div&gt;&lt;div&gt;&amp;nbsp; &amp;nbsp; &quot;tenant_name&quot;:&quot;组户名称&quot;,&lt;/div&gt;&lt;div&gt;&amp;nbsp; &amp;nbsp; &quot;org_name&quot;:&quot;用户组织名称&quot;,&lt;/div&gt;&lt;div&gt;&amp;nbsp; &amp;nbsp; &quot;elements&quot;:[&lt;/div&gt;&lt;div&gt;&amp;nbsp; &amp;nbsp; &amp;nbsp; &amp;nbsp; &quot;user_mgt_add&quot;,&lt;/div&gt;&lt;div&gt;&amp;nbsp; &amp;nbsp; &amp;nbsp; &amp;nbsp; &quot;user_mgt_delete&quot;&lt;/div&gt;&lt;div&gt;&amp;nbsp; &amp;nbsp; ],&lt;/div&gt;&lt;div&gt;&amp;nbsp; &amp;nbsp; &quot;switchable_roles&quot;:[&lt;/div&gt;&lt;div&gt;&amp;nbsp; &amp;nbsp; &amp;nbsp; &amp;nbsp; {&lt;/div&gt;&lt;div&gt;&amp;nbsp; &amp;nbsp; &amp;nbsp; &amp;nbsp; &amp;nbsp; &amp;nbsp; &quot;role_id&quot;:&quot;role-ac69fn6ij&quot;,&lt;/div&gt;&lt;div&gt;&amp;nbsp; &amp;nbsp; &amp;nbsp; &amp;nbsp; &amp;nbsp; &amp;nbsp; &quot;role_name&quot;:&quot;部门管理员&quot;,&lt;/div&gt;&lt;div&gt;&amp;nbsp; &amp;nbsp; &amp;nbsp; &amp;nbsp; &amp;nbsp; &amp;nbsp; &quot;status&quot;:&quot;available&quot;&lt;/div&gt;&lt;div&gt;&amp;nbsp; &amp;nbsp; &amp;nbsp; &amp;nbsp; },&lt;/div&gt;&lt;div&gt;&amp;nbsp; &amp;nbsp; &amp;nbsp; &amp;nbsp; {&lt;/div&gt;&lt;div&gt;&amp;nbsp; &amp;nbsp; &amp;nbsp; &amp;nbsp; &amp;nbsp; &amp;nbsp; &quot;role_id&quot;:&quot;role-ac69fjtk&quot;,&lt;/div&gt;&lt;div&gt;&amp;nbsp; &amp;nbsp; &amp;nbsp; &amp;nbsp; &amp;nbsp; &amp;nbsp; &quot;role_name&quot;:&quot;云主机管理员&quot;,&lt;/div&gt;&lt;div&gt;&amp;nbsp; &amp;nbsp; &amp;nbsp; &amp;nbsp; &amp;nbsp; &amp;nbsp; &quot;status&quot;:&quot;enabled&quot;&lt;/div&gt;&lt;div&gt;&amp;nbsp; &amp;nbsp; &amp;nbsp; &amp;nbsp; }&lt;/div&gt;&lt;div&gt;&amp;nbsp; &amp;nbsp; ]&lt;/div&gt;&lt;div&gt;}&lt;/div&gt;" style="text;html=1;align=left;verticalAlign=middle;resizable=0;points=[];autosize=1;fontSize=18;" vertex="1" parent="1">
          <mxGeometry x="60" y="2880" width="310" height="480" as="geometry" />
        </mxCell>
        <mxCell id="bSy5o8476wJf-g97gq2l-89" style="edgeStyle=orthogonalEdgeStyle;rounded=0;orthogonalLoop=1;jettySize=auto;html=1;fontSize=18;" edge="1" parent="1" source="bSy5o8476wJf-g97gq2l-84" target="bSy5o8476wJf-g97gq2l-88">
          <mxGeometry relative="1" as="geometry" />
        </mxCell>
        <mxCell id="bSy5o8476wJf-g97gq2l-84" value="角色切换" style="rounded=1;whiteSpace=wrap;html=1;absoluteArcSize=1;arcSize=14;strokeWidth=2;" vertex="1" parent="1">
          <mxGeometry x="220" y="1430" width="100" height="100" as="geometry" />
        </mxCell>
        <mxCell id="bSy5o8476wJf-g97gq2l-87" style="edgeStyle=orthogonalEdgeStyle;rounded=0;orthogonalLoop=1;jettySize=auto;html=1;entryX=0.5;entryY=0;entryDx=0;entryDy=0;fontSize=18;" edge="1" parent="1" source="bSy5o8476wJf-g97gq2l-86" target="bSy5o8476wJf-g97gq2l-84">
          <mxGeometry relative="1" as="geometry" />
        </mxCell>
        <mxCell id="bSy5o8476wJf-g97gq2l-86" value="role_id" style="shape=parallelogram;html=1;strokeWidth=2;perimeter=parallelogramPerimeter;whiteSpace=wrap;rounded=1;arcSize=12;size=0.23;" vertex="1" parent="1">
          <mxGeometry x="220" y="1300" width="100" height="60" as="geometry" />
        </mxCell>
        <mxCell id="bSy5o8476wJf-g97gq2l-91" value="" style="edgeStyle=orthogonalEdgeStyle;rounded=0;orthogonalLoop=1;jettySize=auto;html=1;fontSize=18;" edge="1" parent="1" source="bSy5o8476wJf-g97gq2l-88" target="bSy5o8476wJf-g97gq2l-90">
          <mxGeometry relative="1" as="geometry" />
        </mxCell>
        <mxCell id="bSy5o8476wJf-g97gq2l-106" style="edgeStyle=orthogonalEdgeStyle;rounded=0;orthogonalLoop=1;jettySize=auto;html=1;fontSize=12;entryX=0.5;entryY=0;entryDx=0;entryDy=0;" edge="1" parent="1" source="bSy5o8476wJf-g97gq2l-88" target="bSy5o8476wJf-g97gq2l-189">
          <mxGeometry relative="1" as="geometry">
            <mxPoint x="450" y="1590" as="targetPoint" />
          </mxGeometry>
        </mxCell>
        <mxCell id="bSy5o8476wJf-g97gq2l-88" value="角色是否存在" style="strokeWidth=2;html=1;shape=mxgraph.flowchart.decision;whiteSpace=wrap;" vertex="1" parent="1">
          <mxGeometry x="400" y="1430" width="100" height="100" as="geometry" />
        </mxCell>
        <mxCell id="bSy5o8476wJf-g97gq2l-100" value="" style="edgeStyle=orthogonalEdgeStyle;rounded=0;orthogonalLoop=1;jettySize=auto;html=1;fontSize=18;" edge="1" parent="1" source="bSy5o8476wJf-g97gq2l-90" target="bSy5o8476wJf-g97gq2l-93">
          <mxGeometry relative="1" as="geometry" />
        </mxCell>
        <mxCell id="bSy5o8476wJf-g97gq2l-109" value="" style="edgeStyle=orthogonalEdgeStyle;rounded=0;orthogonalLoop=1;jettySize=auto;html=1;fontSize=12;entryX=0.5;entryY=0;entryDx=0;entryDy=0;" edge="1" parent="1" source="bSy5o8476wJf-g97gq2l-90" target="bSy5o8476wJf-g97gq2l-192">
          <mxGeometry relative="1" as="geometry">
            <mxPoint x="630" y="1590" as="targetPoint" />
          </mxGeometry>
        </mxCell>
        <mxCell id="bSy5o8476wJf-g97gq2l-90" value="角色是否&lt;br&gt;已被禁用" style="strokeWidth=2;html=1;shape=mxgraph.flowchart.decision;whiteSpace=wrap;" vertex="1" parent="1">
          <mxGeometry x="580" y="1430" width="100" height="100" as="geometry" />
        </mxCell>
        <mxCell id="bSy5o8476wJf-g97gq2l-99" value="" style="edgeStyle=orthogonalEdgeStyle;rounded=0;orthogonalLoop=1;jettySize=auto;html=1;fontSize=18;" edge="1" parent="1" source="bSy5o8476wJf-g97gq2l-93" target="bSy5o8476wJf-g97gq2l-94">
          <mxGeometry relative="1" as="geometry" />
        </mxCell>
        <mxCell id="bSy5o8476wJf-g97gq2l-93" value="生成token" style="rounded=1;whiteSpace=wrap;html=1;absoluteArcSize=1;arcSize=14;strokeWidth=2;" vertex="1" parent="1">
          <mxGeometry x="760" y="1430" width="100" height="100" as="geometry" />
        </mxCell>
        <mxCell id="bSy5o8476wJf-g97gq2l-137" value="" style="edgeStyle=orthogonalEdgeStyle;rounded=0;orthogonalLoop=1;jettySize=auto;html=1;fontSize=12;" edge="1" parent="1" source="bSy5o8476wJf-g97gq2l-94" target="bSy5o8476wJf-g97gq2l-136">
          <mxGeometry relative="1" as="geometry" />
        </mxCell>
        <mxCell id="bSy5o8476wJf-g97gq2l-94" value="返回登录成功信息" style="rounded=1;whiteSpace=wrap;html=1;absoluteArcSize=1;arcSize=14;strokeWidth=2;" vertex="1" parent="1">
          <mxGeometry x="940" y="1430" width="100" height="100" as="geometry" />
        </mxCell>
        <mxCell id="bSy5o8476wJf-g97gq2l-103" value="是" style="text;html=1;align=center;verticalAlign=middle;resizable=0;points=[];autosize=1;fontSize=12;" vertex="1" parent="1">
          <mxGeometry x="510" y="1445" width="30" height="20" as="geometry" />
        </mxCell>
        <mxCell id="bSy5o8476wJf-g97gq2l-104" value="否" style="text;html=1;align=center;verticalAlign=middle;resizable=0;points=[];autosize=1;fontSize=12;" vertex="1" parent="1">
          <mxGeometry x="690" y="1445" width="30" height="20" as="geometry" />
        </mxCell>
        <mxCell id="bSy5o8476wJf-g97gq2l-123" value="" style="edgeStyle=orthogonalEdgeStyle;rounded=0;orthogonalLoop=1;jettySize=auto;html=1;fontSize=12;" edge="1" parent="1" source="bSy5o8476wJf-g97gq2l-110" target="bSy5o8476wJf-g97gq2l-122">
          <mxGeometry relative="1" as="geometry" />
        </mxCell>
        <mxCell id="bSy5o8476wJf-g97gq2l-110" value="访问接口" style="rounded=1;whiteSpace=wrap;html=1;absoluteArcSize=1;arcSize=14;strokeWidth=2;" vertex="1" parent="1">
          <mxGeometry x="220" y="2060" width="100" height="100" as="geometry" />
        </mxCell>
        <mxCell id="bSy5o8476wJf-g97gq2l-112" style="edgeStyle=orthogonalEdgeStyle;rounded=0;orthogonalLoop=1;jettySize=auto;html=1;entryX=0.5;entryY=0;entryDx=0;entryDy=0;fontSize=12;" edge="1" parent="1" source="bSy5o8476wJf-g97gq2l-111" target="bSy5o8476wJf-g97gq2l-110">
          <mxGeometry relative="1" as="geometry" />
        </mxCell>
        <mxCell id="bSy5o8476wJf-g97gq2l-111" value="&lt;span style=&quot;text-align: left ; white-space: nowrap&quot;&gt;&lt;font style=&quot;font-size: 12px&quot;&gt;iFCloud-Token&lt;/font&gt;&lt;/span&gt;" style="shape=parallelogram;html=1;strokeWidth=2;perimeter=parallelogramPerimeter;whiteSpace=wrap;rounded=1;arcSize=12;size=0.23;" vertex="1" parent="1">
          <mxGeometry x="210" y="1940" width="120" height="60" as="geometry" />
        </mxCell>
        <mxCell id="bSy5o8476wJf-g97gq2l-113" value="登录" style="text;strokeColor=none;fillColor=none;html=1;fontSize=24;fontStyle=1;verticalAlign=middle;align=left;" vertex="1" parent="1">
          <mxGeometry x="40" y="170" width="100" height="40" as="geometry" />
        </mxCell>
        <mxCell id="bSy5o8476wJf-g97gq2l-114" value="切换角色" style="text;strokeColor=none;fillColor=none;html=1;fontSize=24;fontStyle=1;verticalAlign=middle;align=left;" vertex="1" parent="1">
          <mxGeometry x="40" y="1220" width="100" height="40" as="geometry" />
        </mxCell>
        <mxCell id="bSy5o8476wJf-g97gq2l-118" value="" style="edgeStyle=orthogonalEdgeStyle;rounded=0;orthogonalLoop=1;jettySize=auto;html=1;fontSize=12;" edge="1" parent="1" source="bSy5o8476wJf-g97gq2l-115" target="bSy5o8476wJf-g97gq2l-93">
          <mxGeometry relative="1" as="geometry" />
        </mxCell>
        <mxCell id="bSy5o8476wJf-g97gq2l-115" value="expiration" style="shape=parallelogram;html=1;strokeWidth=2;perimeter=parallelogramPerimeter;whiteSpace=wrap;rounded=1;arcSize=12;size=0.23;" vertex="1" parent="1">
          <mxGeometry x="760" y="1580" width="100" height="60" as="geometry" />
        </mxCell>
        <mxCell id="bSy5o8476wJf-g97gq2l-119" value="" style="edgeStyle=orthogonalEdgeStyle;rounded=0;orthogonalLoop=1;jettySize=auto;html=1;fontSize=12;" edge="1" parent="1" source="bSy5o8476wJf-g97gq2l-117" target="bSy5o8476wJf-g97gq2l-115">
          <mxGeometry relative="1" as="geometry" />
        </mxCell>
        <mxCell id="bSy5o8476wJf-g97gq2l-117" value="DB" style="shape=cylinder;whiteSpace=wrap;html=1;boundedLbl=1;backgroundOutline=1;strokeWidth=1;fontSize=16;align=center;" vertex="1" parent="1">
          <mxGeometry x="780" y="1700" width="60" height="80" as="geometry" />
        </mxCell>
        <mxCell id="bSy5o8476wJf-g97gq2l-120" value="接口访问" style="text;strokeColor=none;fillColor=none;html=1;fontSize=24;fontStyle=1;verticalAlign=middle;align=left;" vertex="1" parent="1">
          <mxGeometry x="40" y="1860" width="100" height="40" as="geometry" />
        </mxCell>
        <mxCell id="bSy5o8476wJf-g97gq2l-125" value="" style="edgeStyle=orthogonalEdgeStyle;rounded=0;orthogonalLoop=1;jettySize=auto;html=1;fontSize=12;" edge="1" parent="1" source="bSy5o8476wJf-g97gq2l-122" target="bSy5o8476wJf-g97gq2l-124">
          <mxGeometry relative="1" as="geometry" />
        </mxCell>
        <mxCell id="bSy5o8476wJf-g97gq2l-155" style="edgeStyle=orthogonalEdgeStyle;rounded=1;orthogonalLoop=1;jettySize=auto;html=1;entryX=0.5;entryY=0;entryDx=0;entryDy=0;fontSize=12;" edge="1" parent="1" source="bSy5o8476wJf-g97gq2l-122" target="bSy5o8476wJf-g97gq2l-145">
          <mxGeometry relative="1" as="geometry">
            <Array as="points">
              <mxPoint x="440" y="2000" />
              <mxPoint x="1150" y="2000" />
            </Array>
          </mxGeometry>
        </mxCell>
        <mxCell id="bSy5o8476wJf-g97gq2l-122" value="是否需要&lt;br&gt;身份认证" style="strokeWidth=2;html=1;shape=mxgraph.flowchart.decision;whiteSpace=wrap;fontSize=12;align=center;" vertex="1" parent="1">
          <mxGeometry x="390" y="2060" width="100" height="100" as="geometry" />
        </mxCell>
        <mxCell id="bSy5o8476wJf-g97gq2l-127" value="" style="edgeStyle=orthogonalEdgeStyle;rounded=0;orthogonalLoop=1;jettySize=auto;html=1;fontSize=12;" edge="1" parent="1" source="bSy5o8476wJf-g97gq2l-124" target="bSy5o8476wJf-g97gq2l-126">
          <mxGeometry relative="1" as="geometry" />
        </mxCell>
        <mxCell id="bSy5o8476wJf-g97gq2l-157" value="" style="edgeStyle=orthogonalEdgeStyle;rounded=1;orthogonalLoop=1;jettySize=auto;html=1;fontSize=12;" edge="1" parent="1" source="bSy5o8476wJf-g97gq2l-124" target="bSy5o8476wJf-g97gq2l-156">
          <mxGeometry relative="1" as="geometry" />
        </mxCell>
        <mxCell id="bSy5o8476wJf-g97gq2l-124" value="认证是否通过" style="strokeWidth=2;html=1;shape=mxgraph.flowchart.decision;whiteSpace=wrap;fontSize=12;align=center;" vertex="1" parent="1">
          <mxGeometry x="570" y="2060" width="100" height="100" as="geometry" />
        </mxCell>
        <mxCell id="bSy5o8476wJf-g97gq2l-129" value="" style="edgeStyle=orthogonalEdgeStyle;rounded=0;orthogonalLoop=1;jettySize=auto;html=1;fontSize=12;" edge="1" parent="1" source="bSy5o8476wJf-g97gq2l-126" target="bSy5o8476wJf-g97gq2l-128">
          <mxGeometry relative="1" as="geometry" />
        </mxCell>
        <mxCell id="bSy5o8476wJf-g97gq2l-158" style="edgeStyle=orthogonalEdgeStyle;rounded=1;orthogonalLoop=1;jettySize=auto;html=1;entryX=0.5;entryY=0;entryDx=0;entryDy=0;fontSize=12;" edge="1" parent="1" source="bSy5o8476wJf-g97gq2l-126" target="bSy5o8476wJf-g97gq2l-145">
          <mxGeometry relative="1" as="geometry">
            <Array as="points">
              <mxPoint x="800" y="2030" />
              <mxPoint x="1150" y="2030" />
            </Array>
          </mxGeometry>
        </mxCell>
        <mxCell id="bSy5o8476wJf-g97gq2l-161" value="" style="edgeStyle=orthogonalEdgeStyle;rounded=1;orthogonalLoop=1;jettySize=auto;html=1;fontSize=12;" edge="1" parent="1" source="bSy5o8476wJf-g97gq2l-126" target="bSy5o8476wJf-g97gq2l-160">
          <mxGeometry relative="1" as="geometry" />
        </mxCell>
        <mxCell id="bSy5o8476wJf-g97gq2l-126" value="是否需要&lt;br&gt;权限认证" style="strokeWidth=2;html=1;shape=mxgraph.flowchart.decision;whiteSpace=wrap;fontSize=12;align=center;" vertex="1" parent="1">
          <mxGeometry x="750" y="2060" width="100" height="100" as="geometry" />
        </mxCell>
        <mxCell id="bSy5o8476wJf-g97gq2l-131" value="" style="edgeStyle=orthogonalEdgeStyle;rounded=0;orthogonalLoop=1;jettySize=auto;html=1;fontSize=12;entryX=0;entryY=0.5;entryDx=0;entryDy=0;" edge="1" parent="1" source="bSy5o8476wJf-g97gq2l-128" target="bSy5o8476wJf-g97gq2l-145">
          <mxGeometry relative="1" as="geometry">
            <mxPoint x="1110" y="2110" as="targetPoint" />
          </mxGeometry>
        </mxCell>
        <mxCell id="bSy5o8476wJf-g97gq2l-128" value="是否有权限" style="strokeWidth=2;html=1;shape=mxgraph.flowchart.decision;whiteSpace=wrap;fontSize=12;align=center;" vertex="1" parent="1">
          <mxGeometry x="930" y="2060" width="100" height="100" as="geometry" />
        </mxCell>
        <mxCell id="bSy5o8476wJf-g97gq2l-133" value="" style="edgeStyle=orthogonalEdgeStyle;rounded=0;orthogonalLoop=1;jettySize=auto;html=1;fontSize=12;" edge="1" parent="1" source="bSy5o8476wJf-g97gq2l-132" target="bSy5o8476wJf-g97gq2l-1">
          <mxGeometry relative="1" as="geometry" />
        </mxCell>
        <mxCell id="bSy5o8476wJf-g97gq2l-132" value="开始" style="strokeWidth=2;html=1;shape=mxgraph.flowchart.start_2;whiteSpace=wrap;fontSize=12;align=center;" vertex="1" parent="1">
          <mxGeometry x="40" y="380" width="100" height="100" as="geometry" />
        </mxCell>
        <mxCell id="bSy5o8476wJf-g97gq2l-134" value="结束" style="strokeWidth=2;html=1;shape=mxgraph.flowchart.start_2;whiteSpace=wrap;fontSize=12;align=center;" vertex="1" parent="1">
          <mxGeometry x="1630" y="1060" width="100" height="100" as="geometry" />
        </mxCell>
        <mxCell id="bSy5o8476wJf-g97gq2l-136" value="结束" style="strokeWidth=2;html=1;shape=mxgraph.flowchart.start_2;whiteSpace=wrap;fontSize=12;align=center;" vertex="1" parent="1">
          <mxGeometry x="1120" y="1430" width="100" height="100" as="geometry" />
        </mxCell>
        <mxCell id="bSy5o8476wJf-g97gq2l-139" value="" style="edgeStyle=orthogonalEdgeStyle;rounded=0;orthogonalLoop=1;jettySize=auto;html=1;fontSize=12;" edge="1" parent="1" source="bSy5o8476wJf-g97gq2l-138" target="bSy5o8476wJf-g97gq2l-84">
          <mxGeometry relative="1" as="geometry" />
        </mxCell>
        <mxCell id="bSy5o8476wJf-g97gq2l-138" value="开始" style="strokeWidth=2;html=1;shape=mxgraph.flowchart.start_2;whiteSpace=wrap;fontSize=12;align=center;" vertex="1" parent="1">
          <mxGeometry x="40" y="1430" width="100" height="100" as="geometry" />
        </mxCell>
        <mxCell id="bSy5o8476wJf-g97gq2l-142" value="" style="edgeStyle=orthogonalEdgeStyle;rounded=0;orthogonalLoop=1;jettySize=auto;html=1;fontSize=12;entryX=0;entryY=0.5;entryDx=0;entryDy=0;" edge="1" parent="1" source="bSy5o8476wJf-g97gq2l-140" target="bSy5o8476wJf-g97gq2l-110">
          <mxGeometry relative="1" as="geometry">
            <mxPoint x="220" y="2110" as="targetPoint" />
          </mxGeometry>
        </mxCell>
        <mxCell id="bSy5o8476wJf-g97gq2l-140" value="开始" style="strokeWidth=2;html=1;shape=mxgraph.flowchart.start_2;whiteSpace=wrap;fontSize=12;align=center;" vertex="1" parent="1">
          <mxGeometry x="40" y="2060" width="100" height="100" as="geometry" />
        </mxCell>
        <mxCell id="bSy5o8476wJf-g97gq2l-147" value="" style="edgeStyle=orthogonalEdgeStyle;rounded=0;orthogonalLoop=1;jettySize=auto;html=1;fontSize=12;" edge="1" parent="1" source="bSy5o8476wJf-g97gq2l-145" target="bSy5o8476wJf-g97gq2l-146">
          <mxGeometry relative="1" as="geometry" />
        </mxCell>
        <mxCell id="bSy5o8476wJf-g97gq2l-145" value="认证通过" style="rounded=1;whiteSpace=wrap;html=1;absoluteArcSize=1;arcSize=14;strokeWidth=2;" vertex="1" parent="1">
          <mxGeometry x="1100" y="2060" width="100" height="100" as="geometry" />
        </mxCell>
        <mxCell id="bSy5o8476wJf-g97gq2l-146" value="结束" style="strokeWidth=2;html=1;shape=mxgraph.flowchart.start_2;whiteSpace=wrap;fontSize=12;align=center;" vertex="1" parent="1">
          <mxGeometry x="1280" y="2060" width="100" height="100" as="geometry" />
        </mxCell>
        <mxCell id="bSy5o8476wJf-g97gq2l-148" value="是" style="text;html=1;align=center;verticalAlign=middle;resizable=0;points=[];autosize=1;fontSize=12;" vertex="1" parent="1">
          <mxGeometry x="500" y="2080" width="30" height="20" as="geometry" />
        </mxCell>
        <mxCell id="bSy5o8476wJf-g97gq2l-149" value="是" style="text;html=1;align=center;verticalAlign=middle;resizable=0;points=[];autosize=1;fontSize=12;" vertex="1" parent="1">
          <mxGeometry x="680" y="2080" width="30" height="20" as="geometry" />
        </mxCell>
        <mxCell id="bSy5o8476wJf-g97gq2l-150" value="是" style="text;html=1;align=center;verticalAlign=middle;resizable=0;points=[];autosize=1;fontSize=12;" vertex="1" parent="1">
          <mxGeometry x="860" y="2080" width="30" height="20" as="geometry" />
        </mxCell>
        <mxCell id="bSy5o8476wJf-g97gq2l-151" value="是" style="text;html=1;align=center;verticalAlign=middle;resizable=0;points=[];autosize=1;fontSize=12;" vertex="1" parent="1">
          <mxGeometry x="1040" y="2080" width="30" height="20" as="geometry" />
        </mxCell>
        <mxCell id="bSy5o8476wJf-g97gq2l-154" value="否" style="text;html=1;align=center;verticalAlign=middle;resizable=0;points=[];autosize=1;fontSize=12;" vertex="1" parent="1">
          <mxGeometry x="440" y="2040" width="30" height="20" as="geometry" />
        </mxCell>
        <mxCell id="bSy5o8476wJf-g97gq2l-156" value="返回认证失败异常" style="rounded=1;whiteSpace=wrap;html=1;absoluteArcSize=1;arcSize=14;strokeWidth=2;fillColor=#f8cecc;strokeColor=#b85450;" vertex="1" parent="1">
          <mxGeometry x="570" y="2220" width="100" height="100" as="geometry" />
        </mxCell>
        <mxCell id="bSy5o8476wJf-g97gq2l-159" value="否" style="text;html=1;align=center;verticalAlign=middle;resizable=0;points=[];autosize=1;fontSize=12;" vertex="1" parent="1">
          <mxGeometry x="800" y="2040" width="30" height="20" as="geometry" />
        </mxCell>
        <mxCell id="bSy5o8476wJf-g97gq2l-160" value="返回无权限异常" style="rounded=1;whiteSpace=wrap;html=1;absoluteArcSize=1;arcSize=14;strokeWidth=2;fillColor=#f8cecc;strokeColor=#b85450;" vertex="1" parent="1">
          <mxGeometry x="750" y="2220" width="100" height="100" as="geometry" />
        </mxCell>
        <mxCell id="bSy5o8476wJf-g97gq2l-165" value="" style="group" vertex="1" connectable="0" parent="1">
          <mxGeometry x="750" y="550" width="100" height="100" as="geometry" />
        </mxCell>
        <mxCell id="bSy5o8476wJf-g97gq2l-163" value="返回租户禁用异常" style="rounded=1;whiteSpace=wrap;html=1;absoluteArcSize=1;arcSize=14;strokeWidth=2;fillColor=#f8cecc;strokeColor=#b85450;" vertex="1" parent="bSy5o8476wJf-g97gq2l-165">
          <mxGeometry width="100" height="100" as="geometry" />
        </mxCell>
        <mxCell id="bSy5o8476wJf-g97gq2l-164" value="&lt;font color=&quot;#ffffff&quot;&gt;401&lt;/font&gt;" style="rounded=1;whiteSpace=wrap;html=1;absoluteArcSize=1;arcSize=14;strokeWidth=2;fillColor=#F19C99;strokeColor=none;fontColor=#333333;fontStyle=1" vertex="1" parent="bSy5o8476wJf-g97gq2l-165">
          <mxGeometry x="1" y="1" width="98" height="19" as="geometry" />
        </mxCell>
        <mxCell id="bSy5o8476wJf-g97gq2l-166" value="" style="group" vertex="1" connectable="0" parent="1">
          <mxGeometry x="580" y="550" width="100" height="100" as="geometry" />
        </mxCell>
        <mxCell id="bSy5o8476wJf-g97gq2l-167" value="返回认证失败异常" style="rounded=1;whiteSpace=wrap;html=1;absoluteArcSize=1;arcSize=14;strokeWidth=2;fillColor=#f8cecc;strokeColor=#b85450;" vertex="1" parent="bSy5o8476wJf-g97gq2l-166">
          <mxGeometry width="100" height="100" as="geometry" />
        </mxCell>
        <mxCell id="bSy5o8476wJf-g97gq2l-168" value="&lt;font color=&quot;#ffffff&quot;&gt;401&lt;/font&gt;" style="rounded=1;whiteSpace=wrap;html=1;absoluteArcSize=1;arcSize=14;strokeWidth=2;fillColor=#F19C99;strokeColor=none;fontColor=#333333;fontStyle=1" vertex="1" parent="bSy5o8476wJf-g97gq2l-166">
          <mxGeometry x="1" y="1" width="98" height="19" as="geometry" />
        </mxCell>
        <mxCell id="bSy5o8476wJf-g97gq2l-170" value="" style="group" vertex="1" connectable="0" parent="1">
          <mxGeometry x="920" y="550" width="100" height="100" as="geometry" />
        </mxCell>
        <mxCell id="bSy5o8476wJf-g97gq2l-171" value="返回组织禁用异常" style="rounded=1;whiteSpace=wrap;html=1;absoluteArcSize=1;arcSize=14;strokeWidth=2;fillColor=#f8cecc;strokeColor=#b85450;" vertex="1" parent="bSy5o8476wJf-g97gq2l-170">
          <mxGeometry width="100" height="100" as="geometry" />
        </mxCell>
        <mxCell id="bSy5o8476wJf-g97gq2l-172" value="&lt;font color=&quot;#ffffff&quot;&gt;401&lt;/font&gt;" style="rounded=1;whiteSpace=wrap;html=1;absoluteArcSize=1;arcSize=14;strokeWidth=2;fillColor=#F19C99;strokeColor=none;fontColor=#333333;fontStyle=1" vertex="1" parent="bSy5o8476wJf-g97gq2l-170">
          <mxGeometry x="1" y="1" width="98" height="19" as="geometry" />
        </mxCell>
        <mxCell id="bSy5o8476wJf-g97gq2l-175" value="" style="group" vertex="1" connectable="0" parent="1">
          <mxGeometry x="1100" y="550" width="100" height="100" as="geometry" />
        </mxCell>
        <mxCell id="bSy5o8476wJf-g97gq2l-176" value="返回用户禁用异常" style="rounded=1;whiteSpace=wrap;html=1;absoluteArcSize=1;arcSize=14;strokeWidth=2;fillColor=#f8cecc;strokeColor=#b85450;" vertex="1" parent="bSy5o8476wJf-g97gq2l-175">
          <mxGeometry width="100" height="100" as="geometry" />
        </mxCell>
        <mxCell id="bSy5o8476wJf-g97gq2l-177" value="&lt;font color=&quot;#ffffff&quot;&gt;401&lt;/font&gt;" style="rounded=1;whiteSpace=wrap;html=1;absoluteArcSize=1;arcSize=14;strokeWidth=2;fillColor=#F19C99;strokeColor=none;fontColor=#333333;fontStyle=1" vertex="1" parent="bSy5o8476wJf-g97gq2l-175">
          <mxGeometry x="1" y="1" width="98" height="19" as="geometry" />
        </mxCell>
        <mxCell id="bSy5o8476wJf-g97gq2l-178" value="" style="group" vertex="1" connectable="0" parent="1">
          <mxGeometry x="1280" y="550" width="100" height="100" as="geometry" />
        </mxCell>
        <mxCell id="bSy5o8476wJf-g97gq2l-179" value="返回无角色异常" style="rounded=1;whiteSpace=wrap;html=1;absoluteArcSize=1;arcSize=14;strokeWidth=2;fillColor=#f8cecc;strokeColor=#b85450;" vertex="1" parent="bSy5o8476wJf-g97gq2l-178">
          <mxGeometry width="100" height="100" as="geometry" />
        </mxCell>
        <mxCell id="bSy5o8476wJf-g97gq2l-180" value="&lt;font color=&quot;#ffffff&quot;&gt;401&lt;/font&gt;" style="rounded=1;whiteSpace=wrap;html=1;absoluteArcSize=1;arcSize=14;strokeWidth=2;fillColor=#F19C99;strokeColor=none;fontColor=#333333;fontStyle=1" vertex="1" parent="bSy5o8476wJf-g97gq2l-178">
          <mxGeometry x="1" y="1" width="98" height="19" as="geometry" />
        </mxCell>
        <mxCell id="bSy5o8476wJf-g97gq2l-184" value="" style="group" vertex="1" connectable="0" parent="1">
          <mxGeometry x="1460" y="550" width="100" height="100" as="geometry" />
        </mxCell>
        <mxCell id="bSy5o8476wJf-g97gq2l-185" value="返回角色禁用异常" style="rounded=1;whiteSpace=wrap;html=1;absoluteArcSize=1;arcSize=14;strokeWidth=2;fillColor=#f8cecc;strokeColor=#b85450;" vertex="1" parent="bSy5o8476wJf-g97gq2l-184">
          <mxGeometry width="100" height="100" as="geometry" />
        </mxCell>
        <mxCell id="bSy5o8476wJf-g97gq2l-186" value="&lt;font color=&quot;#ffffff&quot;&gt;401&lt;/font&gt;" style="rounded=1;whiteSpace=wrap;html=1;absoluteArcSize=1;arcSize=14;strokeWidth=2;fillColor=#F19C99;strokeColor=none;fontColor=#333333;fontStyle=1" vertex="1" parent="bSy5o8476wJf-g97gq2l-184">
          <mxGeometry x="1" y="1" width="98" height="19" as="geometry" />
        </mxCell>
        <mxCell id="bSy5o8476wJf-g97gq2l-188" value="" style="group" vertex="1" connectable="0" parent="1">
          <mxGeometry x="400" y="1590" width="100" height="100" as="geometry" />
        </mxCell>
        <mxCell id="bSy5o8476wJf-g97gq2l-189" value="返回角色&lt;br&gt;不存在异常" style="rounded=1;whiteSpace=wrap;html=1;absoluteArcSize=1;arcSize=14;strokeWidth=2;fillColor=#f8cecc;strokeColor=#b85450;" vertex="1" parent="bSy5o8476wJf-g97gq2l-188">
          <mxGeometry width="100" height="100" as="geometry" />
        </mxCell>
        <mxCell id="bSy5o8476wJf-g97gq2l-190" value="&lt;font color=&quot;#ffffff&quot;&gt;405&lt;/font&gt;" style="rounded=1;whiteSpace=wrap;html=1;absoluteArcSize=1;arcSize=14;strokeWidth=2;fillColor=#F19C99;strokeColor=none;fontColor=#333333;fontStyle=1" vertex="1" parent="bSy5o8476wJf-g97gq2l-188">
          <mxGeometry x="1" y="1" width="98" height="19" as="geometry" />
        </mxCell>
        <mxCell id="bSy5o8476wJf-g97gq2l-191" value="" style="group" vertex="1" connectable="0" parent="1">
          <mxGeometry x="580" y="1590" width="100" height="100" as="geometry" />
        </mxCell>
        <mxCell id="bSy5o8476wJf-g97gq2l-192" value="返回角色禁用异常" style="rounded=1;whiteSpace=wrap;html=1;absoluteArcSize=1;arcSize=14;strokeWidth=2;fillColor=#f8cecc;strokeColor=#b85450;" vertex="1" parent="bSy5o8476wJf-g97gq2l-191">
          <mxGeometry width="100" height="100" as="geometry" />
        </mxCell>
        <mxCell id="bSy5o8476wJf-g97gq2l-193" value="&lt;font color=&quot;#ffffff&quot;&gt;401&lt;/font&gt;" style="rounded=1;whiteSpace=wrap;html=1;absoluteArcSize=1;arcSize=14;strokeWidth=2;fillColor=#F19C99;strokeColor=none;fontColor=#333333;fontStyle=1" vertex="1" parent="bSy5o8476wJf-g97gq2l-191">
          <mxGeometry x="1" y="1" width="98" height="19" as="geometry" />
        </mxCell>
      </root>
    </mxGraphModel>
  </diagram>
</mxfile>
